<?xml version="1.0" encoding="UTF-8" standalone="no" ?>
<!DOCTYPE svg PUBLIC "-//W3C//DTD SVG 1.1//EN" "http://www.w3.org/Graphics/SVG/1.1/DTD/svg11.dtd">
<svg xmlns="http://www.w3.org/2000/svg" xmlns:xlink="http://www.w3.org/1999/xlink" version="1.1" width="1060" height="700" viewBox="251.82 290 1060 700" xml:space="preserve">
<desc>Created with Fabric.js 5.2.4</desc>
<defs>
</defs>
<rect x="0" y="0" width="100%" height="100%" fill="transparent"></rect>
<g transform="matrix(Infinity NaN NaN Infinity 0 0)" id="c9b9f7f6-935a-4459-8f89-fd8528783fcf"  >
</g>
<g transform="matrix(1 0 0 1 530 350)" id="10bae61c-b1cf-4cda-a18b-ee19acebde17"  >
<rect style="stroke: none; stroke-width: 1; stroke-dasharray: none; stroke-linecap: butt; stroke-dashoffset: 0; stroke-linejoin: miter; stroke-miterlimit: 4; fill: rgb(255,255,255); fill-rule: nonzero; opacity: 1; visibility: hidden;" vector-effect="non-scaling-stroke"  x="-530" y="-350" rx="0" ry="0" width="1060" height="700" />
</g>
<g transform="matrix(0.99 0 0 0.99 763.7 634.06)"  >
<g style="" vector-effect="non-scaling-stroke"   >
		<g transform="matrix(0.13 0 0 -0.13 -19.84 -221.79)"  >
<path style="stroke: none; stroke-width: 1; stroke-dasharray: none; stroke-linecap: butt; stroke-dashoffset: 0; stroke-linejoin: miter; stroke-miterlimit: 4; fill: rgb(168,63,9); fill-rule: nonzero; opacity: 1;" vector-effect="non-scaling-stroke"  transform=" translate(-9865.39, -12228)" d="M 9788 12988 C 9661 12838 9582 12698 9535 12535 C 9482 12355 9491 12110 9559 11903 C 9609 11751 9715 11559 9808 11450 L 9839 11415 L 9937 11515 C 10139 11719 10230 11920 10230 12165 C 10230 12280 10205 12413 10165 12515 C 10102 12676 9990 12861 9874 12994 L 9834 13041 L 9788 12988 z M 9817 12500 L 9815 12266 L 9712 12409 L 9609 12552 L 9646 12647 C 9667 12699 9711 12783 9744 12834 L 9805 12925 L 9812 12830 C 9817 12778 9819 12629 9817 12500 z M 9935 12805 C 9991 12721 10090 12527 10090 12500 C 10090 12491 10039 12434 9977 12372 L 9863 12258 L 9857 12357 C 9853 12411 9850 12558 9850 12684 C 9850 12946 9845 12940 9935 12805 z M 9719 12341 L 9820 12201 L 9820 12066 C 9820 11991 9817 11930 9813 11930 C 9808 11931 9756 11972 9695 12023 L 9585 12116 L 9577 12185 C 9566 12286 9589 12498 9609 12485 C 9614 12483 9663 12418 9719 12341 z M 10123 12353 C 10144 12257 10153 12150 10145 12082 L 10138 12024 L 10007 11972 C 9935 11944 9874 11922 9872 11924 C 9870 11926 9866 11985 9863 12055 L 9857 12182 L 9976 12301 C 10041 12366 10098 12420 10102 12420 C 10105 12420 10115 12390 10123 12353 z M 9711 11959 L 9820 11868 L 9820 11697 L 9820 11525 L 9780 11588 C 9704 11707 9647 11837 9615 11961 C 9606 11993 9597 12026 9594 12035 C 9591 12043 9591 12050 9595 12050 C 9599 12050 9651 12009 9711 11959 z M 10130 11945 C 10130 11943 10117 11904 10100 11859 C 10064 11759 10000 11654 9926 11575 L 9871 11515 L 9873 11684 L 9875 11852 L 9995 11901 C 10115 11949 10130 11954 10130 11945 z" stroke-linecap="round" />
</g>
		<g transform="matrix(0.13 0 0 -0.13 94.63 -174.05)"  >
<path style="stroke: none; stroke-width: 1; stroke-dasharray: none; stroke-linecap: butt; stroke-dashoffset: 0; stroke-linejoin: miter; stroke-miterlimit: 4; fill: rgb(168,63,9); fill-rule: nonzero; opacity: 1;" vector-effect="non-scaling-stroke"  transform=" translate(-10725.81, -11878.5)" d="M 11000 12335 C 10641 12262 10397 12009 10305 11615 C 10293 11560 10287 11493 10289 11431 L 10290 11407 L 10408 11413 C 10546 11420 10616 11437 10725 11489 C 10861 11554 10959 11653 11034 11800 C 11106 11942 11144 12082 11156 12255 L 11163 12350 L 11114 12349 C 11087 12349 11036 12342 11000 12335 z M 11018 12231 C 10807 11999 10745 11932 10741 11935 C 10737 11939 10757 12128 10766 12168 C 10772 12196 10865 12243 10969 12271 C 11075 12300 11078 12297 11018 12231 z M 11090 12161 C 11075 12070 11022 11900 11007 11895 C 10979 11887 10749 11881 10752 11889 C 10754 11893 10832 11981 10925 12083 C 11110 12286 11112 12287 11090 12161 z M 10736 12128 C 10733 12104 10725 12038 10719 11981 L 10707 11877 L 10627 11788 C 10583 11740 10545 11701 10543 11703 C 10540 11707 10510 11924 10510 11946 C 10510 11979 10701 12170 10734 12170 C 10738 12170 10740 12151 10736 12128 z M 10505 11750 L 10510 11675 L 10430 11590 C 10360 11516 10350 11509 10350 11531 C 10350 11596 10412 11776 10463 11860 L 10484 11894 L 10492 11860 C 10496 11841 10501 11791 10505 11750 z M 10990 11854 C 10990 11817 10816 11600 10786 11600 C 10780 11600 10727 11619 10668 11641 L 10560 11683 L 10609 11739 C 10690 11831 10711 11848 10755 11853 C 10824 11860 10990 11860 10990 11854 z M 10652 11619 C 10709 11597 10757 11576 10759 11574 C 10768 11565 10590 11491 10525 11477 C 10416 11452 10347 11446 10356 11462 C 10371 11486 10533 11660 10541 11660 C 10546 11660 10596 11642 10652 11619 z" stroke-linecap="round" />
</g>
		<g transform="matrix(0.13 0 0 -0.13 -11.88 10.38)"  >
<path style="stroke: none; stroke-width: 1; stroke-dasharray: none; stroke-linecap: butt; stroke-dashoffset: 0; stroke-linejoin: miter; stroke-miterlimit: 4; fill: rgb(168,63,9); fill-rule: nonzero; opacity: 1;" vector-effect="non-scaling-stroke"  transform=" translate(-10005.11, -10484.49)" d="M 12230 11379 C 11929 11360 11654 11289 11430 11174 C 11269 11091 11165 11005 11090 10891 L 11075 10869 L 10640 10889 C 9952 10922 8318 10998 7950 11015 C 7766 11023 7406 11039 7151 11051 C 6708 11072 6685 11072 6633 11056 C 6569 11036 6499 10977 6467 10915 C 6447 10879 6445 10857 6442 10683 C 6439 10496 6439 10488 6463 10437 C 6511 10331 6610 10270 6733 10270 C 6791 10270 7160 10286 8070 10329 L 8455 10348 L 8563 10234 C 8752 10036 8926 9906 9155 9794 C 9521 9616 9953 9545 10345 9601 C 10717 9654 11085 9818 11376 10062 L 11466 10139 L 11551 10105 C 11916 9958 12381 9911 12845 9974 C 13088 10007 13262 10057 13430 10140 C 13523 10187 13554 10218 13554 10265 C 13554 10308 13535 10329 13484 10340 C 13463 10345 13190 10350 12878 10350 C 12562 10350 12310 10354 12310 10359 C 12310 10369 12410 10376 12750 10391 C 12885 10396 13114 10407 13259 10414 L 13524 10427 L 13547 10454 C 13579 10492 13577 10535 13541 10571 C 13525 10587 13501 10600 13488 10600 C 13475 10600 13287 10609 13070 10620 C 12853 10630 12595 10642 12497 10646 C 12344 10652 12296 10659 12312 10675 C 12315 10679 12627 10696 13200 10725 C 13463 10738 13508 10743 13530 10759 C 13559 10780 13570 10815 13558 10850 C 13540 10903 13592 10897 12771 10940 C 12560 10951 12370 10960 12348 10960 C 12321 10960 12310 10964 12310 10975 C 12310 10988 12383 10990 12909 10990 C 13499 10990 13508 10990 13534 11011 C 13592 11056 13555 11132 13451 11185 C 13136 11343 12710 11411 12230 11379 z M 12791 11281 C 12876 11270 12980 11254 13022 11245 C 13132 11223 13302 11164 13385 11122 L 13455 11085 L 12855 11080 C 12525 11077 12249 11071 12243 11067 C 12223 11054 12225 10891 12246 10883 C 12254 10880 12494 10866 12780 10851 C 13065 10837 13301 10823 13304 10820 C 13307 10817 13070 10802 12778 10787 C 12486 10772 12244 10757 12239 10754 C 12224 10745 12228 10580 12243 10575 C 12253 10571 13259 10522 13396 10519 L 13445 10518 L 13390 10510 C 13360 10506 13097 10492 12805 10480 C 12514 10467 12265 10453 12253 10449 C 12232 10441 12230 10434 12230 10361 C 12230 10308 12234 10279 12243 10271 C 12253 10263 12435 10259 12861 10258 L 13465 10255 L 13395 10219 C 13070 10050 12482 9988 11995 10070 C 11866 10092 11670 10147 11565 10190 C 11415 10253 11258 10364 11194 10454 C 11126 10550 11114 10563 11099 10563 C 11091 10562 10892 10553 10655 10541 C 10419 10529 9849 10502 9390 10480 C 8931 10458 8141 10420 7634 10396 C 7107 10370 6699 10355 6679 10359 C 6630 10370 6607 10384 6572 10424 C 6526 10477 6517 10524 6522 10695 C 6526 10862 6533 10884 6595 10938 C 6614 10956 6643 10972 6658 10976 C 6673 10979 6690 10983 6697 10985 C 6703 10987 7077 10971 7527 10949 C 8390 10908 9950 10834 10678 10800 C 10917 10789 11116 10782 11121 10786 C 11126 10789 11145 10815 11164 10843 C 11257 10988 11474 11126 11733 11205 C 11837 11236 12041 11279 12135 11290 C 12282 11306 12629 11301 12791 11281 z M 10935 10450 C 10922 10429 10750 10324 10654 10279 C 10527 10219 10382 10177 10220 10155 C 9914 10114 9569 10189 9290 10358 L 9257 10378 L 9301 10384 C 9325 10387 9566 10399 9835 10411 C 10105 10423 10431 10438 10560 10445 C 10871 10461 10943 10462 10935 10450 z M 11213 10297 C 11236 10278 11284 10244 11318 10223 L 11381 10183 L 11333 10140 C 11260 10076 11103 9966 11011 9915 C 10828 9813 10623 9742 10395 9699 C 10237 9669 9964 9662 9806 9684 C 9456 9733 9143 9863 8868 10072 C 8777 10141 8580 10328 8580 10346 C 8580 10354 8662 10359 8845 10365 L 9110 10372 L 9177 10324 C 9399 10169 9652 10081 9941 10058 C 10067 10048 10103 10049 10218 10064 C 10528 10105 10790 10214 11018 10398 L 11082 10449 L 11126 10391 C 11150 10359 11189 10317 11213 10297 z" stroke-linecap="round" />
</g>
		<g transform="matrix(0.13 0 0 -0.13 -82.65 22.58)"  >
<path style="stroke: none; stroke-width: 1; stroke-dasharray: none; stroke-linecap: butt; stroke-dashoffset: 0; stroke-linejoin: miter; stroke-miterlimit: 4; fill: rgb(168,63,9); fill-rule: nonzero; opacity: 1;" vector-effect="non-scaling-stroke"  transform=" translate(-9454.84, -10407.99)" d="M 10570 10684 C 10109 10662 8828 10601 7975 10560 C 6839 10506 6695 10498 6683 10488 C 6663 10472 6667 10430 6690 10422 C 6708 10415 6893 10423 8100 10479 C 8345 10491 8892 10516 9315 10535 C 9739 10554 10324 10581 10617 10595 C 10910 10609 11153 10620 11159 10620 C 11164 10620 11188 10592 11213 10558 C 11367 10343 11629 10189 11944 10129 C 12089 10101 12218 10098 12234 10123 C 12250 10147 12230 10174 12194 10178 C 12091 10187 11931 10215 11850 10236 C 11605 10300 11367 10466 11255 10650 L 11219 10710 L 11132 10709 C 11084 10708 10831 10697 10570 10684 z" stroke-linecap="round" />
</g>
		<g transform="matrix(0.13 0 0 -0.13 -363.47 210.29)"  >
<path style="stroke: none; stroke-width: 1; stroke-dasharray: none; stroke-linecap: butt; stroke-dashoffset: 0; stroke-linejoin: miter; stroke-miterlimit: 4; fill: rgb(168,63,9); fill-rule: nonzero; opacity: 1;" vector-effect="non-scaling-stroke"  transform=" translate(-7285, -9001)" d="M 7050 9001 L 7050 8730 L 7110 8730 L 7170 8730 L 7170 8805 L 7170 8880 L 7233 8880 L 7295 8880 L 7345 8805 L 7395 8731 L 7458 8730 C 7492 8730 7520 8733 7520 8736 C 7520 8739 7495 8778 7463 8822 C 7411 8897 7408 8903 7426 8913 C 7462 8933 7500 8982 7511 9023 C 7534 9110 7499 9196 7420 9240 C 7378 9263 7364 9265 7213 9268 L 7050 9272 L 7050 9001 z M 7350 9155 C 7410 9124 7405 9019 7343 8991 C 7330 8985 7286 8980 7245 8980 L 7170 8980 L 7170 9075 L 7170 9170 L 7245 9170 C 7293 9170 7332 9164 7350 9155 z" stroke-linecap="round" />
</g>
		<g transform="matrix(0.13 0 0 -0.13 -123.41 212.47)"  >
<path style="stroke: none; stroke-width: 1; stroke-dasharray: none; stroke-linecap: butt; stroke-dashoffset: 0; stroke-linejoin: miter; stroke-miterlimit: 4; fill: rgb(168,63,9); fill-rule: nonzero; opacity: 1;" vector-effect="non-scaling-stroke"  transform=" translate(-9083.4, -8985)" d="M 8990 9190 C 8990 9141 8989 9140 8960 9140 C 8931 9140 8930 9138 8930 9095 C 8930 9052 8931 9050 8960 9050 L 8990 9050 L 8991 8948 C 8991 8891 8996 8829 9003 8810 C 9021 8757 9070 8730 9145 8730 C 9179 8730 9214 8736 9224 8743 C 9240 8755 9241 8759 9227 8791 C 9214 8824 9210 8826 9175 8822 C 9119 8815 9110 8833 9110 8952 L 9110 9050 L 9160 9050 L 9210 9050 L 9210 9095 L 9210 9140 L 9160 9140 L 9110 9140 L 9110 9190 L 9110 9240 L 9050 9240 L 8990 9240 L 8990 9190 z" stroke-linecap="round" />
</g>
		<g transform="matrix(0.13 0 0 -0.13 356.59 212.47)"  >
<path style="stroke: none; stroke-width: 1; stroke-dasharray: none; stroke-linecap: butt; stroke-dashoffset: 0; stroke-linejoin: miter; stroke-miterlimit: 4; fill: rgb(168,63,9); fill-rule: nonzero; opacity: 1;" vector-effect="non-scaling-stroke"  transform=" translate(-12683.4, -8985)" d="M 12590 9190 C 12590 9141 12589 9140 12560 9140 C 12531 9140 12530 9138 12530 9095 C 12530 9052 12531 9050 12560 9050 L 12590 9050 L 12591 8948 C 12591 8891 12596 8829 12603 8810 C 12621 8757 12670 8730 12745 8730 C 12779 8730 12814 8736 12824 8743 C 12840 8755 12841 8759 12827 8791 C 12814 8824 12810 8826 12775 8822 C 12719 8815 12710 8833 12710 8952 L 12710 9050 L 12760 9050 L 12810 9050 L 12810 9095 L 12810 9140 L 12760 9140 L 12710 9140 L 12710 9190 L 12710 9240 L 12650 9240 L 12590 9240 L 12590 9190 z" stroke-linecap="round" />
</g>
		<g transform="matrix(0.13 0 0 -0.13 -273.73 218.82)"  >
<path style="stroke: none; stroke-width: 1; stroke-dasharray: none; stroke-linecap: butt; stroke-dashoffset: 0; stroke-linejoin: miter; stroke-miterlimit: 4; fill: rgb(168,63,9); fill-rule: nonzero; opacity: 1;" vector-effect="non-scaling-stroke"  transform=" translate(-7957.5, -8938.51)" d="M 7852 9125 C 7817 9107 7789 9083 7772 9057 C 7749 9022 7745 9006 7745 8940 C 7745 8874 7749 8858 7772 8823 C 7838 8723 8026 8696 8125 8773 C 8145 8789 8145 8789 8113 8821 C 8082 8853 8082 8853 8047 8837 C 7983 8806 7895 8823 7870 8869 C 7849 8908 7855 8910 8015 8910 L 8170 8910 L 8170 8953 C 8170 9012 8134 9078 8083 9114 C 8050 9137 8028 9143 7973 9147 C 7914 9151 7898 9148 7852 9125 z M 8031 9031 C 8083 8979 8073 8970 7962 8970 C 7908 8970 7861 8973 7857 8976 C 7848 8985 7877 9037 7897 9049 C 7907 9055 7934 9060 7958 9060 C 7993 9060 8007 9054 8031 9031 z" stroke-linecap="round" />
</g>
		<g transform="matrix(0.13 0 0 -0.13 -193.02 218.78)"  >
<path style="stroke: none; stroke-width: 1; stroke-dasharray: none; stroke-linecap: butt; stroke-dashoffset: 0; stroke-linejoin: miter; stroke-miterlimit: 4; fill: rgb(168,63,9); fill-rule: nonzero; opacity: 1;" vector-effect="non-scaling-stroke"  transform=" translate(-8562.02, -8938.85)" d="M 8477 9136 C 8427 9117 8403 9095 8390 9054 C 8361 8966 8412 8916 8550 8895 C 8612 8885 8632 8873 8628 8847 C 8622 8803 8528 8802 8428 8844 C 8416 8850 8407 8844 8396 8821 C 8387 8805 8380 8784 8380 8776 C 8380 8754 8471 8730 8554 8730 C 8677 8731 8746 8779 8744 8864 C 8742 8918 8702 8954 8623 8970 C 8499 8996 8474 9012 8507 9046 C 8520 9059 8537 9061 8589 9057 C 8625 9054 8664 9049 8675 9045 C 8692 9040 8699 9046 8713 9076 C 8723 9096 8730 9114 8728 9115 C 8690 9146 8538 9159 8477 9136 z" stroke-linecap="round" />
</g>
		<g transform="matrix(0.13 0 0 -0.13 -48.54 218.78)"  >
<path style="stroke: none; stroke-width: 1; stroke-dasharray: none; stroke-linecap: butt; stroke-dashoffset: 0; stroke-linejoin: miter; stroke-miterlimit: 4; fill: rgb(168,63,9); fill-rule: nonzero; opacity: 1;" vector-effect="non-scaling-stroke"  transform=" translate(-9646, -8938.85)" d="M 9528 9135 C 9502 9126 9478 9115 9474 9109 C 9471 9103 9475 9081 9485 9060 L 9502 9022 L 9533 9039 C 9552 9048 9589 9055 9623 9055 C 9673 9055 9685 9051 9701 9031 C 9711 9018 9720 8999 9720 8989 C 9720 8972 9712 8970 9638 8970 C 9547 8970 9480 8948 9461 8912 C 9455 8900 9450 8871 9450 8846 C 9450 8764 9518 8722 9631 8732 C 9664 8736 9689 8745 9705 8760 L 9730 8783 L 9730 8757 C 9730 8731 9732 8730 9786 8730 L 9842 8730 L 9838 8883 C 9835 9054 9824 9087 9761 9124 C 9716 9150 9593 9156 9528 9135 z M 9720 8884 C 9720 8844 9703 8822 9661 8809 C 9607 8793 9565 8813 9565 8855 C 9565 8893 9596 8910 9668 8910 C 9717 8910 9720 8909 9720 8884 z" stroke-linecap="round" />
</g>
		<g transform="matrix(0.13 0 0 -0.13 39.97 218.62)"  >
<path style="stroke: none; stroke-width: 1; stroke-dasharray: none; stroke-linecap: butt; stroke-dashoffset: 0; stroke-linejoin: miter; stroke-miterlimit: 4; fill: rgb(168,63,9); fill-rule: nonzero; opacity: 1;" vector-effect="non-scaling-stroke"  transform=" translate(-10310.13, -8940)" d="M 10104 9135 C 10100 9127 10099 9058 10102 8982 C 10105 8868 10109 8839 10125 8811 C 10158 8755 10192 8736 10268 8732 C 10327 8729 10340 8731 10373 8754 L 10410 8779 L 10410 8755 C 10410 8731 10413 8730 10465 8730 L 10520 8730 L 10520 8940 L 10520 9150 L 10465 9150 L 10410 9150 L 10410 9053 C 10409 8928 10398 8871 10370 8848 C 10341 8824 10279 8825 10249 8849 C 10226 8867 10225 8875 10222 9009 L 10218 9150 L 10164 9150 C 10124 9150 10108 9146 10104 9135 z" stroke-linecap="round" />
</g>
		<g transform="matrix(0.13 0 0 -0.13 121.55 218.41)"  >
<path style="stroke: none; stroke-width: 1; stroke-dasharray: none; stroke-linecap: butt; stroke-dashoffset: 0; stroke-linejoin: miter; stroke-miterlimit: 4; fill: rgb(168,63,9); fill-rule: nonzero; opacity: 1;" vector-effect="non-scaling-stroke"  transform=" translate(-10920, -8941.5)" d="M 10797 9143 C 10793 9140 10790 9045 10790 8933 L 10790 8730 L 10850 8730 L 10910 8730 L 10910 8844 C 10910 8907 10914 8970 10920 8984 C 10932 9017 10970 9041 11014 9043 L 11050 9045 L 11050 9099 L 11050 9153 L 11010 9147 C 10989 9144 10958 9133 10941 9121 C 10904 9094 10900 9095 10900 9125 C 10900 9148 10897 9150 10852 9150 C 10825 9150 10800 9147 10797 9143 z" stroke-linecap="round" />
</g>
		<g transform="matrix(0.13 0 0 -0.13 188.8 218.78)"  >
<path style="stroke: none; stroke-width: 1; stroke-dasharray: none; stroke-linecap: butt; stroke-dashoffset: 0; stroke-linejoin: miter; stroke-miterlimit: 4; fill: rgb(168,63,9); fill-rule: nonzero; opacity: 1;" vector-effect="non-scaling-stroke"  transform=" translate(-11426, -8938.85)" d="M 11308 9135 C 11282 9126 11258 9115 11254 9109 C 11251 9103 11255 9081 11265 9060 L 11282 9022 L 11313 9039 C 11332 9048 11369 9055 11403 9055 C 11453 9055 11465 9051 11481 9031 C 11491 9018 11500 8999 11500 8989 C 11500 8972 11492 8970 11418 8970 C 11327 8970 11260 8948 11241 8912 C 11235 8900 11230 8871 11230 8846 C 11230 8764 11298 8722 11411 8732 C 11444 8736 11469 8745 11485 8760 L 11510 8783 L 11510 8757 C 11510 8731 11512 8730 11566 8730 L 11622 8730 L 11618 8883 C 11615 9054 11604 9087 11541 9124 C 11496 9150 11373 9156 11308 9135 z M 11500 8884 C 11500 8844 11483 8822 11441 8809 C 11387 8793 11345 8813 11345 8855 C 11345 8893 11376 8910 11448 8910 C 11497 8910 11500 8909 11500 8884 z" stroke-linecap="round" />
</g>
		<g transform="matrix(0.13 0 0 -0.13 278.75 218.62)"  >
<path style="stroke: none; stroke-width: 1; stroke-dasharray: none; stroke-linecap: butt; stroke-dashoffset: 0; stroke-linejoin: miter; stroke-miterlimit: 4; fill: rgb(168,63,9); fill-rule: nonzero; opacity: 1;" vector-effect="non-scaling-stroke"  transform=" translate(-12101, -8940)" d="M 11890 8940 L 11890 8730 L 11945 8730 L 12000 8730 L 12000 8833 C 12000 8889 12005 8952 12010 8972 C 12031 9046 12116 9075 12165 9025 C 12189 9002 12190 8996 12190 8865 L 12190 8730 L 12251 8730 L 12312 8730 L 12308 8889 C 12305 9062 12300 9076 12237 9124 C 12194 9156 12106 9157 12048 9127 L 12000 9103 L 12000 9126 C 12000 9148 11996 9150 11945 9150 L 11890 9150 L 11890 8940 z" stroke-linecap="round" />
</g>
		<g transform="matrix(0.13 0 0 -0.13 -250.98 307.16)"  >
<path style="stroke: none; stroke-width: 1; stroke-dasharray: none; stroke-linecap: butt; stroke-dashoffset: 0; stroke-linejoin: miter; stroke-miterlimit: 4; fill: rgb(168,63,9); fill-rule: nonzero; opacity: 1;" vector-effect="non-scaling-stroke"  transform=" translate(-8126.54, -8277.57)" d="M 8075 8415 C 8002 8389 7960 8312 7980 8240 C 7993 8195 8007 8178 8050 8151 C 8114 8112 8209 8131 8253 8191 C 8264 8206 8274 8238 8277 8263 C 8290 8372 8182 8453 8075 8415 z M 8190 8385 C 8228 8366 8250 8322 8250 8269 C 8250 8188 8156 8131 8077 8163 C 8029 8184 8005 8223 8005 8283 C 8005 8326 8009 8335 8042 8366 C 8072 8393 8088 8400 8120 8400 C 8143 8400 8174 8393 8190 8385 z" stroke-linecap="round" />
</g>
		<g transform="matrix(0.13 0 0 -0.13 -151.7 307.07)"  >
<path style="stroke: none; stroke-width: 1; stroke-dasharray: none; stroke-linecap: butt; stroke-dashoffset: 0; stroke-linejoin: miter; stroke-miterlimit: 4; fill: rgb(168,63,9); fill-rule: nonzero; opacity: 1;" vector-effect="non-scaling-stroke"  transform=" translate(-8870.57, -8278.24)" d="M 8837 8416 C 8817 8408 8793 8396 8784 8389 C 8736 8349 8725 8255 8763 8199 C 8806 8135 8881 8115 8960 8146 L 9001 8163 L 8998 8218 C 8994 8295 8970 8302 8970 8226 L 8970 8171 L 8930 8159 C 8829 8128 8733 8227 8773 8321 C 8794 8371 8823 8392 8880 8398 C 8916 8401 8937 8398 8956 8385 C 8974 8374 8985 8371 8992 8378 C 8999 8385 8993 8393 8973 8403 C 8928 8427 8879 8431 8837 8416 z" stroke-linecap="round" />
</g>
		<g transform="matrix(0.13 0 0 -0.13 21.28 307.25)"  >
<path style="stroke: none; stroke-width: 1; stroke-dasharray: none; stroke-linecap: butt; stroke-dashoffset: 0; stroke-linejoin: miter; stroke-miterlimit: 4; fill: rgb(168,63,9); fill-rule: nonzero; opacity: 1;" vector-effect="non-scaling-stroke"  transform=" translate(-10167.86, -8276.89)" d="M 10155 8421 C 10061 8398 10016 8307 10054 8216 C 10087 8137 10206 8103 10276 8154 C 10306 8177 10284 8184 10244 8165 C 10195 8142 10146 8152 10103 8195 C 10075 8223 10070 8235 10070 8277 C 10070 8305 10077 8335 10086 8348 C 10120 8397 10212 8416 10259 8384 C 10274 8373 10285 8371 10292 8378 C 10315 8401 10209 8434 10155 8421 z" stroke-linecap="round" />
</g>
		<g transform="matrix(0.13 0 0 -0.13 134.81 307.12)"  >
<path style="stroke: none; stroke-width: 1; stroke-dasharray: none; stroke-linecap: butt; stroke-dashoffset: 0; stroke-linejoin: miter; stroke-miterlimit: 4; fill: rgb(168,63,9); fill-rule: nonzero; opacity: 1;" vector-effect="non-scaling-stroke"  transform=" translate(-11019.95, -8277.82)" d="M 10985 8421 C 10940 8410 10914 8390 10891 8349 C 10804 8195 11006 8053 11132 8180 C 11167 8214 11170 8222 11170 8271 C 11170 8357 11127 8408 11045 8423 C 11029 8426 11002 8425 10985 8421 z M 11098 8375 C 11179 8307 11157 8186 11059 8160 C 10976 8137 10900 8193 10900 8276 C 10900 8332 10912 8355 10953 8380 C 10999 8408 11061 8406 11098 8375 z" stroke-linecap="round" />
</g>
		<g transform="matrix(0.13 0 0 -0.13 189.02 307.16)"  >
<path style="stroke: none; stroke-width: 1; stroke-dasharray: none; stroke-linecap: butt; stroke-dashoffset: 0; stroke-linejoin: miter; stroke-miterlimit: 4; fill: rgb(168,63,9); fill-rule: nonzero; opacity: 1;" vector-effect="non-scaling-stroke"  transform=" translate(-11426.54, -8277.57)" d="M 11375 8415 C 11302 8389 11260 8312 11280 8240 C 11293 8195 11307 8178 11350 8151 C 11414 8112 11509 8131 11553 8191 C 11564 8206 11574 8238 11577 8263 C 11590 8372 11482 8453 11375 8415 z M 11490 8385 C 11528 8366 11550 8322 11550 8269 C 11550 8188 11456 8131 11377 8163 C 11329 8184 11305 8223 11305 8283 C 11305 8326 11309 8335 11342 8366 C 11372 8393 11388 8400 11420 8400 C 11443 8400 11474 8393 11490 8385 z" stroke-linecap="round" />
</g>
		<g transform="matrix(0.13 0 0 -0.13 -198.31 307.51)"  >
<path style="stroke: none; stroke-width: 1; stroke-dasharray: none; stroke-linecap: butt; stroke-dashoffset: 0; stroke-linejoin: miter; stroke-miterlimit: 4; fill: rgb(168,63,9); fill-rule: nonzero; opacity: 1;" vector-effect="non-scaling-stroke"  transform=" translate(-8520.57, -8275)" d="M 8410 8275 C 8410 8191 8414 8130 8419 8130 C 8425 8130 8430 8151 8432 8178 C 8435 8223 8436 8225 8469 8228 C 8523 8233 8543 8223 8575 8176 C 8592 8151 8611 8130 8618 8130 C 8635 8130 8634 8134 8599 8183 L 8568 8227 L 8599 8258 C 8641 8300 8642 8350 8601 8391 C 8573 8418 8567 8420 8491 8420 L 8410 8420 L 8410 8275 z M 8565 8388 C 8608 8369 8616 8299 8578 8268 C 8563 8255 8540 8250 8494 8250 L 8430 8250 L 8430 8325 L 8430 8400 L 8485 8400 C 8515 8400 8551 8395 8565 8388 z" stroke-linecap="round" />
</g>
		<g transform="matrix(0.13 0 0 -0.13 -102.51 307.58)"  >
<path style="stroke: none; stroke-width: 1; stroke-dasharray: none; stroke-linecap: butt; stroke-dashoffset: 0; stroke-linejoin: miter; stroke-miterlimit: 4; fill: rgb(168,63,9); fill-rule: nonzero; opacity: 1;" vector-effect="non-scaling-stroke"  transform=" translate(-9239.78, -8274.42)" d="M 9192 8353 C 9175 8315 9146 8250 9126 8208 C 9099 8148 9094 8130 9105 8130 C 9113 8130 9127 8148 9136 8170 L 9152 8210 L 9236 8210 L 9320 8210 L 9340 8170 C 9358 8134 9380 8117 9380 8138 C 9380 8142 9352 8207 9318 8282 C 9275 8376 9250 8420 9239 8420 C 9229 8420 9212 8396 9192 8353 z M 9276 8314 C 9295 8273 9310 8237 9310 8234 C 9310 8232 9279 8230 9240 8230 C 9202 8230 9170 8233 9170 8238 C 9170 8248 9233 8390 9237 8390 C 9239 8390 9257 8356 9276 8314 z" stroke-linecap="round" />
</g>
		<g transform="matrix(0.13 0 0 -0.13 -52.43 307.51)"  >
<path style="stroke: none; stroke-width: 1; stroke-dasharray: none; stroke-linecap: butt; stroke-dashoffset: 0; stroke-linejoin: miter; stroke-miterlimit: 4; fill: rgb(168,63,9); fill-rule: nonzero; opacity: 1;" vector-effect="non-scaling-stroke"  transform=" translate(-9615, -8275)" d="M 9490 8275 C 9490 8154 9492 8130 9505 8130 C 9517 8130 9520 8152 9522 8250 L 9525 8371 L 9619 8250 C 9671 8184 9719 8130 9726 8130 C 9737 8130 9740 8160 9740 8275 C 9740 8396 9738 8420 9725 8420 C 9713 8420 9710 8398 9708 8303 L 9705 8186 L 9612 8303 C 9560 8367 9512 8420 9504 8420 C 9493 8420 9490 8393 9490 8275 z" stroke-linecap="round" />
</g>
		<g transform="matrix(0.13 0 0 -0.13 -14.05 307.51)"  >
<path style="stroke: none; stroke-width: 1; stroke-dasharray: none; stroke-linecap: butt; stroke-dashoffset: 0; stroke-linejoin: miter; stroke-miterlimit: 4; fill: rgb(168,63,9); fill-rule: nonzero; opacity: 1;" vector-effect="non-scaling-stroke"  transform=" translate(-9900, -8275)" d="M 9890 8275 C 9890 8185 9894 8130 9900 8130 C 9906 8130 9910 8185 9910 8275 C 9910 8365 9906 8420 9900 8420 C 9894 8420 9890 8365 9890 8275 z" stroke-linecap="round" />
</g>
		<g transform="matrix(0.13 0 0 -0.13 89.65 307.51)"  >
<path style="stroke: none; stroke-width: 1; stroke-dasharray: none; stroke-linecap: butt; stroke-dashoffset: 0; stroke-linejoin: miter; stroke-miterlimit: 4; fill: rgb(168,63,9); fill-rule: nonzero; opacity: 1;" vector-effect="non-scaling-stroke"  transform=" translate(-10680, -8275)" d="M 10580 8275 C 10580 8153 10582 8130 10595 8130 C 10607 8130 10610 8144 10610 8195 L 10610 8260 L 10685 8260 C 10728 8260 10760 8264 10760 8270 C 10760 8276 10728 8280 10685 8280 L 10610 8280 L 10610 8340 L 10610 8400 L 10695 8400 C 10745 8400 10780 8404 10780 8410 C 10780 8416 10740 8420 10680 8420 L 10580 8420 L 10580 8275 z" stroke-linecap="round" />
</g>
		<g transform="matrix(0.13 0 0 -0.13 244.81 307.51)"  >
<path style="stroke: none; stroke-width: 1; stroke-dasharray: none; stroke-linecap: butt; stroke-dashoffset: 0; stroke-linejoin: miter; stroke-miterlimit: 4; fill: rgb(168,63,9); fill-rule: nonzero; opacity: 1;" vector-effect="non-scaling-stroke"  transform=" translate(-11844.53, -8275)" d="M 11710 8275 L 11710 8130 L 11783 8130 C 11839 8130 11866 8135 11900 8153 C 12002 8204 12006 8340 11908 8400 C 11882 8416 11857 8420 11793 8420 L 11710 8420 L 11710 8275 z M 11885 8386 C 11926 8369 11950 8326 11950 8269 C 11950 8208 11904 8164 11828 8155 C 11732 8143 11735 8138 11732 8278 L 11729 8400 L 11790 8400 C 11823 8400 11866 8394 11885 8386 z" stroke-linecap="round" />
</g>
</g>
</g>
<g transform="matrix(0 0 NaN NaN 2126.74 0)"  >
<g style=""   >
</g>
</g>
</svg>